# xmcd
#
# Track frame offsets:
#	150
#	18537
#	35952
#
# Disc length: 712 seconds
#
# Revision: 0
# Processed by: cddbd v1.5.2PL0 Copyright (c) Steve Scherf et al.
# Submitted via: audiograbber 1.83.01
#
DISCID=2302c603
DTITLE=Aika - Little By Little [CDM)
DYEAR=2000
DGENRE=Pop
TTITLE0=Little By Little (Original Radio)
TTITLE1=Little By Little (Janis's 2 Step Mix)
TTITLE2=Little By Little (Make's Garage Mix)
EXTD=TR.
EXTT0=
EXTT1=
EXTT2=
PLAYORDER=
